<svg data-v-423bf9ae="" xmlns="http://www.w3.org/2000/svg" viewBox="0 0 475 90" class="iconLeft"><!----><!----><!----><g data-v-423bf9ae="" id="64268da4-d3d1-4d55-b6d9-797153013282" fill="#12262A" transform="matrix(6.349206477356088,0,0,6.349206477356088,97.80215348968147,15.063491820604433)"><path d="M1.99 9.44C3.63 9.44 4.35 8.54 4.35 6.73C4.35 5.88 4.12 5.17 3.75 4.72L3.75 4.72C3.75 4.72 4.35 4.00 4.35 2.70C4.35 0.90 3.63 0 1.99 0L0.60 0C0.32 0 0.10 0.22 0.10 0.50L0.10 8.93C0.10 9.21 0.32 9.44 0.60 9.44ZM1.99 1.39C2.67 1.39 2.95 1.76 2.95 2.70C2.95 3.64 2.67 4.02 1.99 4.02L1.50 4.02L1.50 1.39ZM1.99 5.40C2.67 5.40 2.95 5.78 2.95 6.73C2.95 7.67 2.67 8.05 1.99 8.05L1.50 8.05L1.50 5.40ZM6.76 0.50C6.76 0.22 6.52 0 6.26 0L5.87 0C5.59 0 5.36 0.22 5.36 0.50L5.36 8.93C5.36 9.21 5.59 9.44 5.87 9.44L6.26 9.44C6.52 9.44 6.76 9.21 6.76 8.93ZM11.84 9.44C12.12 9.44 12.35 9.21 12.35 8.93L12.35 0.50C12.35 0.22 12.12 0 11.84 0L11.45 0C11.17 0 10.95 0.22 10.95 0.50L10.95 5.12L9.00 0.31C8.95 0.15 8.72 0 8.54 0L8.20 0C7.94 0 7.70 0.22 7.70 0.50L7.70 8.93C7.70 9.21 7.94 9.44 8.20 9.44L8.61 9.44C8.88 9.44 9.11 9.21 9.11 8.93L9.11 4.31L11.06 9.13C11.12 9.28 11.35 9.44 11.52 9.44ZM16.17 4.70C15.34 4.70 15.39 6.10 16.17 6.10L16.66 6.10L16.66 6.71C16.66 7.62 16.37 8.05 15.76 8.05C15.15 8.05 14.85 7.62 14.85 6.71C14.85 6.34 14.85 4.94 14.85 2.72C14.85 2.07 14.98 1.74 15.18 1.57C15.33 1.41 15.57 1.39 15.76 1.39C15.96 1.39 16.18 1.41 16.35 1.57C16.52 1.72 16.66 2.06 16.66 2.72L16.66 2.91C16.66 3.19 16.88 3.42 17.16 3.42L17.57 3.42C17.84 3.42 18.06 3.19 18.06 2.91L18.06 2.72C18.06 0.94 17.30 0 15.76 0C14.22 0 13.45 0.94 13.45 2.72L13.45 6.71C13.45 8.47 14.22 9.44 15.76 9.44C17.30 9.44 18.06 8.48 18.06 6.71L18.06 5.21C18.06 4.93 17.84 4.70 17.57 4.70L16.17 4.70ZM19.08 6.69C19.08 7.80 19.39 8.44 19.82 8.88C20.29 9.32 20.87 9.44 21.38 9.44C21.90 9.44 22.48 9.32 22.95 8.88C23.38 8.44 23.67 7.80 23.67 6.69L23.67 2.73C23.67 0.95 22.92 0 21.38 0C19.85 0 19.08 0.97 19.08 2.73ZM20.48 2.73C20.48 1.82 20.76 1.39 21.38 1.39C21.98 1.39 22.27 1.79 22.27 2.73L22.27 6.69C22.27 7.64 21.97 8.05 21.38 8.05C20.78 8.05 20.48 7.62 20.48 6.69ZM29.11 4.03L29.11 0.50C29.11 0.22 28.88 0 28.60 0L28.21 0C27.93 0 27.71 0.22 27.71 0.50L27.71 8.93C27.71 9.21 27.93 9.44 28.21 9.44L28.60 9.44C28.88 9.44 29.11 9.21 29.11 8.93L29.11 5.42L30.66 5.42L30.66 8.93C30.66 9.21 30.88 9.44 31.16 9.44L31.56 9.44C31.84 9.44 32.06 9.21 32.06 8.93L32.06 0.50C32.06 0.22 31.84 0 31.56 0L31.16 0C30.88 0 30.66 0.22 30.66 0.50L30.66 4.03ZM33.22 6.69C33.22 7.80 33.53 8.44 33.96 8.88C34.43 9.32 35.01 9.44 35.52 9.44C36.04 9.44 36.62 9.32 37.09 8.88C37.52 8.44 37.81 7.80 37.81 6.69L37.81 2.73C37.81 0.95 37.06 0 35.52 0C33.99 0 33.22 0.97 33.22 2.73ZM34.62 2.73C34.62 1.82 34.90 1.39 35.52 1.39C36.12 1.39 36.41 1.79 36.41 2.73L36.41 6.69C36.41 7.64 36.11 8.05 35.52 8.05C34.92 8.05 34.62 7.62 34.62 6.69ZM40.94 5.40C42.64 5.40 43.40 4.51 43.40 2.70C43.40 0.90 42.64 0 40.94 0L39.42 0C39.14 0 38.92 0.22 38.92 0.50L38.92 8.93C38.92 9.21 39.14 9.44 39.42 9.44L39.82 9.44C40.08 9.44 40.31 9.21 40.31 8.93L40.31 5.40ZM40.94 1.39C41.69 1.39 42 1.76 42 2.70C42 3.61 41.69 4.02 40.94 4.02L40.31 4.02L40.31 1.39ZM46.40 5.40C48.10 5.40 48.86 4.51 48.86 2.70C48.86 0.90 48.10 0 46.40 0L44.88 0C44.60 0 44.38 0.22 44.38 0.50L44.38 8.93C44.38 9.21 44.60 9.44 44.88 9.44L45.28 9.44C45.54 9.44 45.77 9.21 45.77 8.93L45.77 5.40ZM46.40 1.39C47.15 1.39 47.46 1.76 47.46 2.70C47.46 3.61 47.15 4.02 46.40 4.02L45.77 4.02L45.77 1.39ZM50.32 0C50.04 0 49.81 0.22 49.81 0.50L49.81 8.93C49.81 9.21 50.04 9.44 50.32 9.44L53.34 9.44C53.62 9.44 53.84 9.21 53.84 8.93L53.84 8.55C53.84 8.27 53.62 8.05 53.34 8.05L51.20 8.05L51.20 5.40L52.96 5.40C53.24 5.40 53.47 5.18 53.47 4.90L53.47 4.52C53.47 4.24 53.24 4.02 52.96 4.02L51.20 4.02L51.20 1.39L53.34 1.39C53.62 1.39 53.84 1.16 53.84 0.88L53.84 0.50C53.84 0.22 53.62 0 53.34 0ZM59.28 6.58C59.28 5.85 59.08 5.28 58.67 4.84C58.72 4.80 58.74 4.77 58.79 4.73C59.22 4.30 59.37 3.60 59.37 2.73C59.37 0.85 58.77-0.01 57.05-0.01L55.29-0.01C55.01-0.01 54.78 0.21 54.78 0.49L54.78 8.92C54.78 9.20 55.01 9.42 55.29 9.42L55.68 9.42C55.94 9.42 56.17 9.20 56.17 8.92L56.17 5.49L56.80 5.49C57.48 5.49 57.88 5.88 57.88 6.58L57.88 8.92C57.88 9.20 58.10 9.42 58.38 9.42L58.77 9.42C59.05 9.42 59.28 9.20 59.28 8.92ZM56.17 1.39L57.05 1.39C57.78 1.39 57.99 1.78 57.99 2.73C57.99 3.68 57.58 4.07 56.80 4.07L56.17 4.07Z"></path></g><defs data-v-423bf9ae=""><linearGradient data-v-423bf9ae="" gradientTransform="rotate(25)" id="9e1e1544-b1c1-4797-8211-a950a17ea574" x1="0%" y1="0%" x2="100%" y2="0%"><stop data-v-423bf9ae="" offset="0%" style="stop-color: rgb(164, 212, 162); stop-opacity: 1;"></stop><stop data-v-423bf9ae="" offset="100%" style="stop-color: rgb(122, 229, 234); stop-opacity: 1;"></stop></linearGradient></defs><g data-v-423bf9ae="" id="23f84b80-0634-46af-9fc4-b0955dec26d5" transform="matrix(1.1920529801324504,0,0,1.1920529801324504,-20.656285140688063,-16.72715136546963)" stroke="none" fill="url(#9e1e1544-b1c1-4797-8211-a950a17ea574)"><path d="M83.7 26.3c0-.1-.1-.2-.1-.2l-.1-.1c0-.1-.1-.1-.2-.2l-.1-.1-.1-.1-15.7-11c-.5-.4-1.3-.4-1.8 0l-15 10.2-14.5-10.3c-.5-.4-1.3-.4-1.8 0l-15.7 11c-.1 0-.1.1-.2.1 0 0-.1 0-.1.1-.1.1-.2.3-.3.4v.1c-.1.2-.1.4-.1.6v50.3c0 .5.3 1 .7 1.3l15.7 11h.1l.1.1h.1c.2.1.4.2.7.2s.4-.1.7-.2h.1s.1 0 .1-.1h.1L51.1 79l14.8 10.4h.1l.1.1h.1c.2.1.4.2.7.2.2 0 .4-.1.7-.2h.1s.1 0 .1-.1h.1l15.7-11 .1-.1v-52zm-62.6 3.6l11.3 7.9-11.3 7.9V29.9zM33.6 85l-12.5-8.7V51.9l7.9 5.5 4.6 3.2V85zm31.4.1l-12.5-8.7V51.9L65 60.7v24.4zm.6-46l13.8 9.7-12.2 8.6-.7.5-14.7-10.4h-.1s-.1 0-.1-.1h-.1s-.1 0-.1-.1h-.5H50.2s-.1 0-.1.1H50s-.1 0-.1.1h-.1L35.2 57.9l-.7-.5-12.2-8.6 13.8-9.7c.4-.3.7-.8.7-1.3s-.3-1-.7-1.3l-13.8-9.7 12.9-9L49.7 28c.5.4 1.3.4 1.8 0l15-10.2 12.9 9-13.8 9.7c-.4.3-.7.8-.7 1.3s.3 1 .7 1.3z"></path></g><!----></svg>